<?xml version="1.0" standalone="no"?>
<!DOCTYPE svg PUBLIC "-//W3C//DTD SVG 20010904//EN"
 "http://www.w3.org/TR/2001/REC-SVG-20010904/DTD/svg10.dtd">
<svg version="1.0" xmlns="http://www.w3.org/2000/svg"
 viewBox="0 0 261.000000 113.000000"
 preserveAspectRatio="xMidYMid meet">
<metadata>
Created by potrace 1.16, written by Peter Selinger 2001-2019
</metadata>
<g transform="translate(0.000000,113.000000) scale(0.100000,-0.100000)"
stroke="none">
<path d="M1322 1114 c-30 -21 -41 -52 -31 -86 7 -26 6 -28 -16 -22 -46 12 -95
-67 -95 -153 0 -28 -4 -33 -24 -33 -18 0 -25 -7 -30 -31 -11 -54 -7 -76 17
-92 20 -14 20 -16 3 -16 -17 -1 -18 -7 -13 -55 3 -29 2 -58 -3 -62 -13 -16
-20 -63 -10 -69 16 -10 1 -135 -21 -173 -26 -46 -61 -151 -54 -162 3 -5 -1
-33 -10 -62 -8 -28 -15 -60 -15 -70 0 -20 38 -33 68 -24 16 6 18 14 14 55 -4
41 -1 52 19 72 24 24 49 86 49 125 0 12 14 40 30 62 17 23 30 48 30 56 0 8 9
35 20 61 l20 47 27 -22 c15 -11 37 -37 51 -56 13 -19 33 -39 45 -43 20 -8 22
-16 24 -92 2 -46 4 -118 5 -159 l3 -75 40 -4 c83 -8 118 -6 122 6 3 7 -6 17
-19 22 -13 5 -34 20 -46 34 -24 25 -24 26 -13 146 l11 121 -30 65 c-16 35 -30
68 -30 72 0 4 -14 26 -30 47 -33 43 -40 82 -15 72 11 -4 19 3 25 20 13 33 13
124 0 124 -5 0 -10 7 -10 15 0 20 2 19 60 -10 l49 -25 30 26 c19 16 31 35 31
50 0 13 5 24 11 24 7 0 9 11 6 28 -9 45 12 62 77 62 31 0 56 3 56 8 0 4 26 8
58 9 31 1 63 2 70 2 6 1 12 6 12 11 0 7 -18 8 -50 4 -42 -6 -50 -4 -50 10 0 9
-4 16 -9 16 -5 0 -12 8 -14 18 -4 14 -5 14 -6 -3 -1 -19 -7 -20 -127 -17 -94
2 -126 7 -130 17 -4 10 -10 9 -25 -6 -23 -23 -49 -25 -49 -4 0 9 7 18 15 21
15 6 20 40 9 69 -8 20 -56 45 -86 45 -13 0 -34 -7 -46 -16z m238 -204 c0 -5
-4 -10 -10 -10 -5 0 -10 5 -10 10 0 6 5 10 10 10 6 0 10 -4 10 -10z m-10 -30
c0 -5 -4 -10 -9 -10 -6 0 -13 5 -16 10 -3 6 1 10 9 10 9 0 16 -4 16 -10z"/>
<path d="M32 580 c-31 -29 -34 -51 -30 -199 4 -183 -4 -176 218 -176 156 0
171 2 189 20 10 11 22 30 26 43 l6 22 -165 0 -166 0 0 110 0 110 162 2 c108 2
163 7 165 14 2 6 -8 26 -22 43 l-27 31 -167 0 c-154 0 -169 -2 -189 -20z"/>
<path d="M549 587 c-28 -21 -39 -54 -39 -112 0 -49 4 -60 29 -86 l29 -29 146
0 146 0 0 -35 0 -35 -176 0 -175 0 6 -22 c4 -13 16 -32 26 -43 18 -19 33 -20
195 -20 l176 0 24 28 c20 23 24 39 24 92 0 53 -4 69 -24 92 l-24 28 -151 3
-151 3 0 30 0 29 170 0 c165 0 170 1 170 20 0 12 -11 32 -25 45 -24 25 -27 25
-192 25 -116 -1 -173 -4 -184 -13z"/>
<path d="M1665 568 c-26 -31 -26 -32 -23 -174 4 -197 -6 -188 217 -192 l169
-3 33 29 c32 28 33 32 37 121 l4 91 -151 0 c-126 0 -151 -2 -151 -15 0 -8 10
-23 22 -35 18 -17 35 -20 105 -20 l83 0 0 -40 0 -40 -140 0 -140 0 0 110 0
110 180 0 180 0 0 24 c0 15 -11 33 -26 45 -25 19 -40 21 -199 21 l-173 0 -27
-32z"/>
<path d="M2199 574 c-22 -24 -24 -35 -27 -147 -7 -221 3 -230 235 -225 l155 3
24 28 c23 27 24 34 24 173 0 141 -1 146 -25 169 -24 25 -27 25 -193 25 -168 0
-169 0 -193 -26z m321 -174 l0 -110 -125 0 -125 0 0 110 0 110 125 0 125 0 0
-110z"/>
</g>
</svg>
